<?xml version="1.0" standalone="no"?>
<!DOCTYPE svg PUBLIC "-//W3C//DTD SVG 20010904//EN"
 "http://www.w3.org/TR/2001/REC-SVG-20010904/DTD/svg10.dtd">
<svg version="1.0" xmlns="http://www.w3.org/2000/svg"
 width="512.000000pt" height="512.000000pt" viewBox="0 0 512.000000 512.000000"
 preserveAspectRatio="xMidYMid meet">
<metadata>
Created by potrace 1.11, written by Peter Selinger 2001-2013
</metadata>
<g transform="translate(0.000000,512.000000) scale(0.100000,-0.100000)"
fill="#000000" stroke="none">
<path d="M5 5023 c3 -16 12 -71 20 -123 33 -198 105 -457 182 -655 141 -358
371 -652 602 -769 l46 -24 28 -127 c54 -248 140 -461 254 -634 79 -119 217
-253 324 -316 l86 -49 17 -91 c92 -479 371 -852 720 -961 32 -10 60 -23 61
-29 2 -5 10 -55 18 -111 67 -435 336 -798 698 -943 162 -65 320 -91 549 -91
384 0 624 65 783 211 121 110 182 232 218 436 20 107 22 170 28 668 6 496 9
555 25 600 40 110 96 190 163 235 57 37 159 70 219 70 l44 0 0 245 0 245 -49
0 c-66 0 -157 30 -215 69 -68 47 -134 144 -166 246 -10 29 -15 190 -21 585 -7
549 -11 612 -50 768 -89 358 -336 523 -841 562 -83 6 -812 10 -1940 10 l-1807
0 4 -27z m3672 -468 c218 -31 309 -93 359 -245 16 -49 18 -115 24 -605 6 -445
10 -566 23 -635 40 -209 117 -344 255 -450 l70 -53 -59 -44 c-84 -63 -144
-136 -190 -228 -85 -174 -99 -297 -99 -904 0 -483 -5 -543 -49 -629 -66 -129
-195 -182 -445 -182 -388 0 -610 192 -691 598 l-7 32 285 0 284 0 -9 63 c-26
191 -123 321 -288 383 -34 13 -98 19 -255 25 -237 8 -287 18 -414 80 -150 74
-286 234 -366 431 -18 46 -37 95 -40 111 l-7 27 672 0 671 0 -6 48 c-23 170
-128 327 -263 394 -47 23 -49 23 -592 29 -575 6 -580 6 -705 55 -150 59 -292
199 -382 379 -26 51 -83 196 -83 211 0 2 441 4 980 4 l980 0 0 43 c0 24 -7 68
-16 98 -46 155 -140 259 -282 312 -56 21 -69 21 -927 27 -852 5 -871 6 -925
27 -213 80 -333 221 -434 511 l-35 102 1432 0 c1195 0 1449 -3 1534 -15z"/>
</g>
</svg>
